<svg id="Layer_1" data-name="Layer 1" xmlns="http://www.w3.org/2000/svg" viewBox="0 0 592.55 196.09"><defs><style>.cls-1{font-size:57.69px;}.cls-1,.cls-2,.cls-4{fill:#1d1d1b;font-family:WorkSans-SemiBold, Work Sans;font-weight:600;}.cls-2{font-size:44.31px;}.cls-3{fill:#2b71f0;}.cls-4{font-size:36px;}</style></defs><text class="cls-1" transform="translate(214.36 90.77)">CareerTicket </text><text class="cls-2" transform="translate(382.18 151.64)">Umurava</text><path class="cls-3" d="M154.17,159.11a8.75,8.75,0,0,0-11.56-.79c-29.19,22.87-75.45,19.91-100.46-8C12.05,116.81,16.3,63.74,51.28,37.66c28.42-21.19,67.51-19,90.59-.35a8.88,8.88,0,0,0,11.71-.4h0a8.83,8.83,0,0,0-.77-13.43c-26-19.72-58-24.59-89.08-12.62C24,26.19,1,64.26,4.85,108.66,8.33,149.08,39.24,182.34,81,190.07a90.86,90.86,0,0,0,72.44-17.6,8.8,8.8,0,0,0,.84-13.21Z"/><path class="cls-3" d="M98,196.09a96.89,96.89,0,0,1-17.73-1.65,99.08,99.08,0,0,1-54.91-29.78A92.47,92.47,0,0,1,.42,109c-4-46.18,20.25-86.35,61.71-102.33,32-12.34,66.05-7.52,93.37,13.23a13.26,13.26,0,1,1-16.42,20.83c-23.14-18.69-59.74-18.49-85.15.46C38.48,52.75,28.87,70.13,26.87,90.16a74.71,74.71,0,0,0,18.59,57.22c23.25,25.91,66.49,29.32,94.41,7.44A13.21,13.21,0,0,1,157.32,156l.14.15A13.25,13.25,0,0,1,156.19,176C145.61,184.11,125.35,196.09,98,196.09ZM97.78,8.77A90.11,90.11,0,0,0,65.33,15c-37.67,14.52-59.67,51.13-56,93.27,3.3,38.29,33.14,70.12,72.57,77.42,33,6.1,57.35-7.88,68.93-16.76a4.22,4.22,0,0,0,1.67-3.14,4.34,4.34,0,0,0-1.27-3.4l-.15-.15a4.31,4.31,0,0,0-5.68-.43c-31.47,24.66-80.24,20.77-106.51-8.5A83.62,83.62,0,0,1,18,89.28c2.22-22.22,13.37-42.34,30.6-55.18,28.56-21.3,69.85-21.41,96-.25a4.4,4.4,0,0,0,5.85-.16,4.38,4.38,0,0,0-.39-6.67C134.19,14.92,116.27,8.77,97.78,8.77Z"/><rect class="cls-3" x="56.97" y="123.95" width="79.51" height="23.4" rx="0.96"/><rect class="cls-3" x="84.99" y="95.92" width="79.51" height="23.4" rx="0.96"/><rect class="cls-3" x="111.88" y="69.04" width="79.51" height="23.4" rx="0.96"/><text class="cls-4" transform="translate(323.51 149.2)">by</text></svg>